<?xml version="1.0" encoding="UTF-8"?>
<svg version="1.1" xmlns="http://www.w3.org/2000/svg" width="1080" height="1080">
<path d="M0 0 C0.33 18.81 0.66 37.62 1 57 C3.31 54.69 5.62 52.38 8 50 C8.66 50 9.32 50 10 50 C10.20625 49.443125 10.4125 48.88625 10.625 48.3125 C12.50327969 45.15357507 15.18848805 43.33295673 18 41 C18.33 40.01 18.66 39.02 19 38 C17.35 37.34 15.7 36.68 14 36 C14.33 35.01 14.66 34.02 15 33 C24.24 33 33.48 33 43 33 C42.67 34.32 42.34 35.64 42 37 C41.02160156 37.14695312 41.02160156 37.14695312 40.0234375 37.296875 C39.14945313 37.44640625 38.27546875 37.5959375 37.375 37.75 C36.51648438 37.88921875 35.65796875 38.0284375 34.7734375 38.171875 C28.76704092 39.96533426 24.26964325 44.33238927 19.75 48.5 C19.22148438 48.97308594 18.69296875 49.44617188 18.1484375 49.93359375 C15.45042433 52.4056312 13.33195193 54.55641695 12 58 C21.99637362 71.64610965 21.99637362 71.64610965 33.2578125 84.18359375 C35 86 35 86 35 88 C38.3 88.66 41.6 89.32 45 90 C45.33 91.32 45.66 92.64 46 94 C36.1 94.33 26.2 94.66 16 95 C15.67 93.68 15.34 92.36 15 91 C16.98 90.505 16.98 90.505 19 90 C16.24427277 83.64984594 12.59033825 78.79129305 8.12109375 73.515625 C3 67.44198895 3 67.44198895 3 65 C2.34 65 1.68 65 1 65 C0.94197302 68.43742918 0.90639514 71.87473253 0.875 75.3125 C0.85824219 76.28896484 0.84148437 77.26542969 0.82421875 78.27148438 C0.81777344 79.20927734 0.81132812 80.14707031 0.8046875 81.11328125 C0.79421387 81.97735596 0.78374023 82.84143066 0.77294922 83.73168945 C0.84909832 86.28180721 0.84909832 86.28180721 3 89 C6.56769552 89.73606499 6.56769552 89.73606499 10 90 C10 91.32 10 92.64 10 94 C6.64264863 95.11911712 4.11794614 95.11365586 0.58203125 95.09765625 C-1.29838867 95.09282227 -1.29838867 95.09282227 -3.21679688 95.08789062 C-4.52712891 95.07951172 -5.83746094 95.07113281 -7.1875 95.0625 C-8.52278481 95.05748317 -9.85807141 95.05292059 -11.19335938 95.04882812 C-14.46228473 95.03702695 -17.73111991 95.02056297 -21 95 C-21.33 93.68 -21.66 92.36 -22 91 C-21.43410156 90.81824219 -20.86820312 90.63648438 -20.28515625 90.44921875 C-19.55167969 90.19785156 -18.81820313 89.94648437 -18.0625 89.6875 C-17.33160156 89.44386719 -16.60070312 89.20023438 -15.84765625 88.94921875 C-13.64067976 88.08759559 -13.64067976 88.08759559 -13 85 C-12.90009016 82.73150044 -12.86168513 80.46014112 -12.85473633 78.18945312 C-12.84969841 77.15726906 -12.84969841 77.15726906 -12.84455872 76.10423279 C-12.83506057 73.82988683 -12.83310634 71.55561455 -12.83203125 69.28125 C-12.82881845 67.70088673 -12.82545436 66.12052377 -12.82194519 64.54016113 C-12.81595718 61.22810171 -12.81410501 57.91606837 -12.81469727 54.60400391 C-12.814799 50.35683685 -12.80113361 46.10983654 -12.78392506 41.86270905 C-12.77281696 38.59937773 -12.77077767 35.33608693 -12.77130699 32.07273865 C-12.77012558 30.50662154 -12.76569483 28.94050343 -12.75797462 27.37440491 C-12.74819634 25.18633256 -12.75104376 22.99862487 -12.75708008 20.81054688 C-12.75565506 19.56494995 -12.75423004 18.31935303 -12.75276184 17.03601074 C-12.76716656 13.82347017 -12.76716656 13.82347017 -15 11 C-15.825 11 -16.65 11 -17.5 11 C-18.325 11 -19.15 11 -20 11 C-20.66 10.01 -21.32 9.02 -22 8 C-18.62408909 5.12203595 -15.16379836 3.78129751 -11 2.3125 C-9.783125 1.87550781 -8.56625 1.43851562 -7.3125 0.98828125 C-4 0 -4 0 0 0 Z " fill="#010101" transform="translate(501,449)"/>
<path d="M0 0 C2.80078125 2.33984375 2.80078125 2.33984375 4.80078125 5.33984375 C4.42578125 7.52734375 4.42578125 7.52734375 3.80078125 9.33984375 C1.55078125 9.15234375 1.55078125 9.15234375 -1.19921875 8.33984375 C-1.75609375 7.61796875 -2.31296875 6.89609375 -2.88671875 6.15234375 C-7.80108453 0.1754124 -15.50047256 -3.8292629 -23.19921875 -4.66015625 C-35.36414708 -5.60385978 -46.56401104 -3.58008523 -56.19921875 4.33984375 C-63.0478276 11.2996829 -66.41767392 20.71450216 -67.19921875 30.33984375 C-66.79821499 33.10262135 -66.33789175 35.59935046 -65.63671875 38.27734375 C-65.45544434 38.98028564 -65.27416992 39.68322754 -65.08740234 40.4074707 C-62.75545174 48.76120398 -58.30479989 54.32413941 -51.19921875 59.33984375 C-48.9456808 60.46857916 -46.67757378 61.48473246 -44.34765625 62.4453125 C-42.19921875 63.33984375 -42.19921875 63.33984375 -40.1875 64.41796875 C-38.0479252 65.40999164 -36.35098814 65.69606671 -34.01171875 65.90234375 C-30.19921875 66.33984375 -30.19921875 66.33984375 -29.19921875 67.33984375 C-29.09843755 69.70382843 -29.0594866 72.03795686 -29.06640625 74.40234375 C-29.06544952 75.10883057 -29.0644928 75.81531738 -29.06350708 76.54321289 C-29.06282542 78.03955168 -29.0646787 79.53589342 -29.06884766 81.03222656 C-29.07419618 83.33014532 -29.06890224 85.62786861 -29.0625 87.92578125 C-29.06316078 89.37630252 -29.06444195 90.82682366 -29.06640625 92.27734375 C-29.06438202 92.96900635 -29.06235779 93.66066895 -29.06027222 94.37329102 C-29.08426651 99.22489151 -29.08426651 99.22489151 -30.19921875 100.33984375 C-50.869982 100.21165297 -67.72389005 92.4845542 -82.41015625 78.1875 C-94.93191715 64.92210963 -100.37442217 48.74264277 -100.38671875 30.77734375 C-100.39896484 29.83181641 -100.41121094 28.88628906 -100.42382812 27.91210938 C-100.42576172 27.00009766 -100.42769531 26.08808594 -100.4296875 25.1484375 C-100.43379639 24.32142334 -100.43790527 23.49440918 -100.44213867 22.64233398 C-100.1776189 20.13511194 -99.45582484 18.50660991 -98.19921875 16.33984375 C-96.87921875 16.66984375 -95.55921875 16.99984375 -94.19921875 17.33984375 C-94.25142578 19.13615234 -94.25142578 19.13615234 -94.3046875 20.96875 C-94.73030164 41.89945971 -91.01188548 59.97211564 -76.03515625 75.59765625 C-64.19719794 86.59900973 -50.18081921 92.61279983 -34.19921875 94.33984375 C-34.69421875 90.37984375 -34.69421875 90.37984375 -35.19921875 86.33984375 C-36.43671875 86.25734375 -37.67421875 86.17484375 -38.94921875 86.08984375 C-53.57739497 84.35274782 -66.17635752 76.99613143 -75.4921875 65.640625 C-81.01449001 58.19752162 -88.08293413 47.73318091 -86.921875 38.01953125 C-86.19921875 36.33984375 -86.19921875 36.33984375 -84.19921875 35.33984375 C-80.46124612 37.8318255 -80.44888555 39.14752022 -79.32421875 43.40234375 C-76.95475557 51.58693986 -73.57734995 57.76657228 -68.19921875 64.33984375 C-68.19921875 64.99984375 -68.19921875 65.65984375 -68.19921875 66.33984375 C-67.64105469 66.60023438 -67.08289063 66.860625 -66.5078125 67.12890625 C-63.93893897 68.47636952 -61.65050964 70.06963138 -59.26171875 71.71484375 C-51.52852438 76.69062565 -43.22915885 78.96308158 -34.19921875 80.33984375 C-34.69421875 75.88484375 -34.69421875 75.88484375 -35.19921875 71.33984375 C-36.28589844 71.17548828 -36.28589844 71.17548828 -37.39453125 71.0078125 C-49.555819 69.01336131 -58.74579836 63.45524819 -66.13671875 53.40234375 C-73.05417668 42.58565836 -74.04073576 30.58031301 -71.54296875 18.046875 C-69.04682812 10.41858316 -64.20421601 3.66283301 -58.19921875 -1.66015625 C-57.53921875 -1.66015625 -56.87921875 -1.66015625 -56.19921875 -1.66015625 C-56.19921875 -2.32015625 -56.19921875 -2.98015625 -56.19921875 -3.66015625 C-53.99573815 -4.81622895 -51.78718719 -5.96000346 -49.57421875 -7.09765625 C-48.95675781 -7.42314453 -48.33929688 -7.74863281 -47.703125 -8.08398438 C-31.06646486 -16.57743718 -13.91465507 -10.50927917 0 0 Z " fill="#575455" transform="translate(401.19921875,471.66015625)"/>
<path d="M0 0 C0.33 2.97 0.66 5.94 1 9 C1.66 9 2.32 9 3 9 C3.24878906 8.39542969 3.49757813 7.79085938 3.75390625 7.16796875 C5.19797455 4.65556152 6.46135813 3.77420758 8.9375 2.3125 C9.62714844 1.89613281 10.31679688 1.47976563 11.02734375 1.05078125 C15.10581507 -1.12171139 18.43436018 -1.3095349 23 -1 C28.7821174 1.08156227 32.29744223 4.71322618 35.11694336 10.15625 C36.30150937 13.97096519 36.33674083 17.66755665 36.37890625 21.625 C36.39590073 22.4495166 36.4128952 23.2740332 36.43040466 24.12353516 C36.48334586 26.74894629 36.52373161 29.37434442 36.5625 32 C36.60656458 34.62557469 36.65339038 37.25103341 36.70530701 39.87646484 C36.73702094 41.5069096 36.76398436 43.13745569 36.78553772 44.76806641 C36.85543599 48.62455127 37.0729264 52.24873794 38 56 C40.31 56.66 42.62 57.32 45 58 C45.495 59.98 45.495 59.98 46 62 C35.11 62 24.22 62 13 62 C13.33 60.68 13.66 59.36 14 58 C15.11375 57.9175 16.2275 57.835 17.375 57.75 C20.93518595 57.41821192 20.93518595 57.41821192 22.20776367 55.47241211 C23.35162252 51.902656 23.30515626 48.40202275 23.30078125 44.69140625 C23.30720894 43.48580299 23.30720894 43.48580299 23.31376648 42.25584412 C23.31949992 40.55883728 23.3200173 38.86180588 23.31567383 37.16479492 C23.31251516 34.57492956 23.33597969 31.98620849 23.36132812 29.39648438 C23.36360143 27.7447931 23.36430447 26.09309877 23.36328125 24.44140625 C23.372491 23.67043106 23.38170074 22.89945587 23.39118958 22.1051178 C23.35231385 17.56470317 22.83479124 14.60018055 20 11 C16.78083251 9.39041625 13.49109728 9.5282301 10 10 C6.52302081 11.42454876 3.66734004 13.33265996 1 16 C0.78780117 18.83365608 0.69603431 21.56708021 0.69921875 24.40234375 C0.69493362 25.23584854 0.6906485 26.06935333 0.68623352 26.92811584 C0.68048565 28.6925465 0.67999332 30.45700085 0.68432617 32.22143555 C0.68748355 34.92342533 0.66404255 37.62431778 0.63867188 40.32617188 C0.63639869 42.03906112 0.63569547 43.75195331 0.63671875 45.46484375 C0.627509 46.2742894 0.61829926 47.08373505 0.60881042 47.91770935 C0.51977798 52.07715375 0.51977798 52.07715375 2.3240509 55.6631012 C4.66370034 57.52943146 7.15060716 58.17684207 10 59 C10 59.99 10 60.98 10 62 C5.60454738 62.19725192 1.20863314 62.38110072 -3.1875 62.5625 C-5.05631836 62.64661133 -5.05631836 62.64661133 -6.96289062 62.73242188 C-8.16494141 62.78076172 -9.36699219 62.82910156 -10.60546875 62.87890625 C-11.71043701 62.9260376 -12.81540527 62.97316895 -13.95385742 63.02172852 C-16.79317029 63.00147534 -19.24796085 62.66505747 -22 62 C-21.67 60.68 -21.34 59.36 -21 58 C-19.865625 57.731875 -18.73125 57.46375 -17.5625 57.1875 C-15.7990625 56.5996875 -15.7990625 56.5996875 -14 56 C-12.67088124 52.01264372 -12.85732587 48.1839236 -12.8671875 44.02734375 C-12.86623077 43.14849014 -12.86527405 42.26963654 -12.86428833 41.364151 C-12.86360808 39.50733366 -12.8654516 37.65051394 -12.86962891 35.79370117 C-12.87498572 32.94509571 -12.86967542 30.09664747 -12.86328125 27.24804688 C-12.86394193 25.44531215 -12.86522289 23.64257752 -12.8671875 21.83984375 C-12.86516327 20.98462631 -12.86313904 20.12940887 -12.86105347 19.24827576 C-12.75529682 14.98940633 -12.75529682 14.98940633 -14 11 C-15.89533342 10.53476937 -15.89533342 10.53476937 -18.0625 10.375 C-19.361875 10.25125 -20.66125 10.1275 -22 10 C-22 8.68 -22 7.36 -22 6 C-19.09053687 4.79428057 -16.17150084 3.61371775 -13.25 2.4375 C-12.425 2.09525391 -11.6 1.75300781 -10.75 1.40039062 C-9.95078125 1.08134766 -9.1515625 0.76230469 -8.328125 0.43359375 C-7.22839355 -0.01415405 -7.22839355 -0.01415405 -6.10644531 -0.47094727 C-4 -1 -4 -1 0 0 Z " fill="#000000" transform="translate(637,481)"/>
<path d="M0 0 C5.56416268 5.09061692 6.9602842 11.11710576 7.31884766 18.39648438 C7.35976778 19.96202653 7.3911636 21.52784057 7.4140625 23.09375 C7.43342865 23.92588013 7.4527948 24.75801025 7.4727478 25.61535645 C7.53198326 28.24347042 7.5787021 30.87162956 7.625 33.5 C7.6632315 35.29428873 7.70228615 37.08856013 7.7421875 38.8828125 C7.83763781 43.25506561 7.92187257 47.62740445 8 52 C10.31 51.67 12.62 51.34 15 51 C15.33 50.01 15.66 49.02 16 48 C16.99 48 17.98 48 19 48 C18.84953094 52.96547903 16.16908414 55.20583628 12.7890625 58.44921875 C8.84401057 61.868838 6.29085146 62.54341778 1.2265625 62.4609375 C-1.42346411 61.9123355 -2.28452505 61.18156354 -4 59.125 C-6 56 -6 56 -7 54 C-7.53109375 54.40992188 -8.0621875 54.81984375 -8.609375 55.2421875 C-9.31578125 55.78101563 -10.0221875 56.31984375 -10.75 56.875 C-11.44609375 57.40867187 -12.1421875 57.94234375 -12.859375 58.4921875 C-17.17310031 61.53068744 -20.0963253 62.31325232 -25.4375 62.375 C-26.54996094 62.40335938 -27.66242187 62.43171875 -28.80859375 62.4609375 C-33.52829329 61.77926731 -35.89007117 59.42705135 -38.75 55.75 C-41.02690742 50.74080368 -41.63970723 46.18807375 -40.0625 40.9375 C-35.25455619 30.09315097 -22.49221365 26.01606894 -12.25390625 21.89453125 C-10.51344999 21.23371631 -8.75883753 20.61020894 -7 20 C-6.33344409 12.0556714 -6.33344409 12.0556714 -9 5 C-13.39064787 3.15646225 -16.93598719 2.73866352 -21.5625 3.875 C-22.7690625 4.431875 -22.7690625 4.431875 -24 5 C-24.12117187 5.84304688 -24.24234375 6.68609375 -24.3671875 7.5546875 C-24.53476562 8.65039062 -24.70234375 9.74609375 -24.875 10.875 C-25.03742187 11.96554687 -25.19984375 13.05609375 -25.3671875 14.1796875 C-26 17 -26 17 -28 19 C-34.00458716 19.54587156 -34.00458716 19.54587156 -36.9375 17.9375 C-38.65078429 14.8132757 -38.41526697 12.50010732 -38 9 C-35.29362672 3.11657982 -30.78450904 0.44841782 -25 -2 C-16.79158556 -4.07494101 -7.58981466 -4.04688307 0 0 Z M-16.4375 29.625 C-17.44006836 30.12193359 -17.44006836 30.12193359 -18.46289062 30.62890625 C-23.00733963 33.01598055 -25.53691844 35.33928177 -28 40 C-28.605066 44.31109527 -28.5162117 46.20847539 -26.125 49.875 C-23.47812998 52.52187002 -22.61739816 52.93826018 -18.875 53.3125 C-14.22754351 52.93770512 -9.40626907 51.40626907 -6 48 C-5.91299658 46.36527118 -5.89298937 44.72685945 -5.90234375 43.08984375 C-5.90717773 41.60581055 -5.90717773 41.60581055 -5.91210938 40.09179688 C-5.92048828 39.05087891 -5.92886719 38.00996094 -5.9375 36.9375 C-5.94201172 35.89271484 -5.94652344 34.84792969 -5.95117188 33.77148438 C-5.96300087 31.1809334 -5.97948311 28.59049441 -6 26 C-10.06530795 26 -12.92754002 27.77411027 -16.4375 29.625 Z " fill="#010101" transform="translate(593,483)"/>
<path d="M0 0 C7.09703017 5.33528502 15.31208919 12.09567763 19.375 20.1875 C19.02734375 22.421875 19.02734375 22.421875 18.375 24.1875 C16 24 16 24 13.375 23.1875 C12.25 20.6875 12.25 20.6875 11.375 18.1875 C9.89 17.6925 9.89 17.6925 8.375 17.1875 C6.7265625 15.48046875 6.7265625 15.48046875 5 13.375 C-5.80625178 0.72651819 -21.31903536 -5.67788286 -37.6484375 -7.0703125 C-52.24273174 -7.61084192 -67.81688211 -3.27530015 -79.3125 5.9375 C-81.65162056 7.966414 -81.65162056 7.966414 -82.625 10.1875 C-79.53690305 11.95212683 -78.39187864 12.1875 -74.625 12.1875 C-72.41097274 10.38416119 -72.41097274 10.38416119 -70.3125 8 C-63.28843981 0.70138372 -55.50027641 -5.33834301 -45 -6.0625 C-43.824375 -5.93875 -43.824375 -5.93875 -42.625 -5.8125 C-42 -3.9375 -42 -3.9375 -41.625 -1.8125 C-43.90734794 0.46984794 -45.04799323 0.67798567 -48.125 1.4375 C-58.37106924 4.44065822 -64.74465347 9.86488344 -71.30078125 18.08984375 C-73.625 20.1875 -73.625 20.1875 -76.21484375 20.125 C-79.96374653 18.66675581 -83.77611856 16.88526288 -85.625 13.1875 C-90.47918849 20.2369816 -94.17749746 26.97176284 -96.625 35.1875 C-96.85058594 35.92484375 -97.07617188 36.6621875 -97.30859375 37.421875 C-101.33617539 52.64335595 -97.79668713 69.45125269 -90.625 83.1875 C-88.79794902 85.88706104 -86.91375916 88.48194457 -84.8828125 91.03125 C-83.625 93.1875 -83.625 93.1875 -83.9296875 95.46875 C-84.15914063 96.0359375 -84.38859375 96.603125 -84.625 97.1875 C-88.625 97.1875 -88.625 97.1875 -90.1171875 95.859375 C-102.42799922 78.74943329 -107.00190939 59.93575584 -104.35986328 39.09619141 C-102.29847788 26.7061802 -95.89343658 13.75311674 -86.625 5.1875 C-85.94179688 4.51847656 -85.25859375 3.84945313 -84.5546875 3.16015625 C-60.85800567 -18.86964872 -25.78618657 -18.0503306 0 0 Z " fill="#555254" transform="translate(397.625,453.8125)"/>
<path d="M0 0 C0.33 18.81 0.66 37.62 1 57 C3.31 57.66 5.62 58.32 8 59 C8 59.99 8 60.98 8 62 C-1.9 62.33 -11.8 62.66 -22 63 C-22 61.35 -22 59.7 -22 58 C-19.36 57.67 -16.72 57.34 -14 57 C-13.97472938 50.60962769 -13.95716683 44.21926817 -13.94506836 37.82885742 C-13.94002692 35.65307127 -13.93319393 33.47728853 -13.92456055 31.30151367 C-13.91248662 28.18146933 -13.90676995 25.06146962 -13.90234375 21.94140625 C-13.89718246 20.96224747 -13.89202118 19.98308868 -13.88670349 18.97425842 C-13.88662796 18.07340012 -13.88655243 17.17254181 -13.88647461 16.24438477 C-13.884254 15.44718521 -13.88203339 14.64998566 -13.87974548 13.82862854 C-13.79949544 11.98077719 -13.79949544 11.98077719 -15 11 C-17.32817964 10.63239269 -19.6618385 10.29758419 -22 10 C-22 8.68 -22 7.36 -22 6 C-19.27704434 4.79613537 -16.54815863 3.61184242 -13.8125 2.4375 C-13.04357422 2.09525391 -12.27464844 1.75300781 -11.48242188 1.40039062 C-10.73154297 1.08134766 -9.98066406 0.76230469 -9.20703125 0.43359375 C-8.5210083 0.13509521 -7.83498535 -0.16340332 -7.12817383 -0.47094727 C-5 -1 -5 -1 0 0 Z " fill="#000000" transform="translate(709,481)"/>
<path d="M0 0 C6.13133996 5.55848484 13.66433106 12.49909053 16.67578125 20.42578125 C16.29296875 22.65234375 16.29296875 22.65234375 15.67578125 24.42578125 C12.44457976 24.1620097 11.64904041 23.39459158 9.4921875 20.87890625 C8.37650391 19.29335938 8.37650391 19.29335938 7.23828125 17.67578125 C4.30871779 13.53872815 1.35199858 9.92023983 -2.32421875 6.42578125 C-2.9584375 5.81734375 -3.59265625 5.20890625 -4.24609375 4.58203125 C-8.92945522 0.33898581 -13.70349524 -2.71893114 -19.32421875 -5.57421875 C-19.93652344 -5.92226563 -20.54882812 -6.2703125 -21.1796875 -6.62890625 C-36.52621324 -15.0711315 -54.48595957 -16.17621749 -71.32421875 -12.57421875 C-72.28328125 -12.40148437 -73.24234375 -12.22875 -74.23046875 -12.05078125 C-83.75557599 -10.07918647 -93.83019817 -5.73210848 -101.62109375 0.1640625 C-103.90571897 1.85657155 -105.55427381 1.65660999 -108.32421875 1.42578125 C-108.00040446 -1.52341971 -107.80230097 -3.12118412 -105.609375 -5.19921875 C-103.19737466 -6.69135253 -100.78536714 -8.16410789 -98.32421875 -9.57421875 C-97.57914062 -10.00863281 -96.8340625 -10.44304687 -96.06640625 -10.890625 C-90.96875443 -13.64681302 -85.7038605 -15.57045429 -80.19921875 -17.32421875 C-79.21393188 -17.64048218 -79.21393188 -17.64048218 -78.20874023 -17.96313477 C-50.6912524 -26.34519457 -21.50533587 -18.09854999 0 0 Z " fill="#545152" transform="translate(427.32421875,438.57421875)"/>
<path d="M0 0 C0.75925781 0.33644531 1.51851563 0.67289063 2.30078125 1.01953125 C5.62481208 2.22695779 7.60357495 1.83023724 11 1 C11.66 0.67 12.32 0.34 13 0 C14.8485708 -0.09101612 16.70046379 -0.11753146 18.55126953 -0.11352539 C19.71232208 -0.11344986 20.87337463 -0.11337433 22.0696106 -0.11329651 C23.32796722 -0.10813522 24.58632385 -0.10297394 25.8828125 -0.09765625 C27.16735321 -0.0962413 28.45189392 -0.09482635 29.77536011 -0.09336853 C33.19156842 -0.08954911 36.60773426 -0.07972373 40.02392578 -0.06866455 C43.50943426 -0.05843807 46.9949496 -0.05386826 50.48046875 -0.04882812 C57.32032995 -0.03810096 64.16016294 -0.02103142 71 0 C71.625 1.875 71.625 1.875 72 4 C70 6 70 6 67.88389587 6.22705078 C67.00947342 6.21657715 66.13505096 6.20610352 65.23413086 6.1953125 C64.2422728 6.18870605 63.25041473 6.18209961 62.22850037 6.17529297 C60.61299034 6.15039795 60.61299034 6.15039795 58.96484375 6.125 C57.85702042 6.11742676 56.74919708 6.10985352 55.60780334 6.10205078 C50.85790048 6.06932867 46.10833861 6.01341844 41.35864258 5.95898438 C37.8940594 5.92262838 34.42953403 5.89854281 30.96484375 5.875 C29.90200668 5.85840332 28.83916962 5.84180664 27.74412537 5.82470703 C21.50027174 5.78402379 16.02907167 6.33308227 10 8 C9.67 8.33 9.34 8.66 9 9 C7.00041636 9.04080783 4.99954746 9.04254356 3 9 C3 8.34 3 7.68 3 7 C2.18015625 7.62648438 1.3603125 8.25296875 0.515625 8.8984375 C-0.57278696 9.72412933 -1.66133587 10.54964068 -2.75 11.375 C-3.55824219 11.99375 -3.55824219 11.99375 -4.3828125 12.625 C-9.07214483 16.17059274 -12.0497853 18.33056748 -18 18 C-18.33 16.68 -18.66 15.36 -19 14 C-18.29875 13.6596875 -17.5975 13.319375 -16.875 12.96875 C-10.09776701 9.50646793 -5.04372126 5.69405781 0 0 Z " fill="#575455" transform="translate(403,523)"/>
<path d="M0 0 C2.56359095 1.19885577 4.79812873 2.55856625 7.15625 4.1171875 C18.41417899 10.92815188 31.91634907 12.71304138 44.65625 15.2421875 C44.65625 16.8921875 44.65625 18.5421875 44.65625 20.2421875 C28.52034185 21.44986462 9.60996534 15.01120359 -3.34375 5.2421875 C-4.21875 2.4921875 -4.21875 2.4921875 -4.34375 0.2421875 C-2.34375 -0.7578125 -2.34375 -0.7578125 0 0 Z " fill="#615D5F" transform="translate(327.34375,562.7578125)"/>
<path d="M0 0 C1.87890625 0.62109375 1.87890625 0.62109375 4 2 C5.08984375 4.72265625 5.08984375 4.72265625 5.9375 8.0625 C8.25217724 16.27733493 11.61375801 22.41681534 17 29 C17 29.66 17 30.32 17 31 C17.61875 31.20625 18.2375 31.4125 18.875 31.625 C21.84653645 33.54775888 22.13024659 35.66594527 23 39 C15.62966075 37.92515886 12.35623441 33.78465343 8 28 C3.1650206 21.28660331 -2.91426779 11.24224214 -1.66015625 2.6796875 C-1 1 -1 1 0 0 Z " fill="#524F50" transform="translate(316,507)"/>
<path d="M0 0 C2.64325535 -0.34195961 4.97994712 -0.47333846 7.625 -0.4375 C8.3782959 -0.43210205 9.1315918 -0.4267041 9.90771484 -0.42114258 C20.48630296 -0.14217835 30.37431293 2.6820504 40 7 C40 8.32 40 9.64 40 11 C35.14083682 10.60170794 30.82511958 10.00429116 26.1875 8.5 C19.79024822 6.59910233 13.35805175 6.5480659 6.72924805 6.46679688 C5.88918213 6.44681641 5.04911621 6.42683594 4.18359375 6.40625 C3.42618896 6.39916016 2.66878418 6.39207031 1.88842773 6.38476562 C0 6 0 6 -2 3 C-1.34 2.01 -0.68 1.02 0 0 Z " fill="#585455" transform="translate(361,429)"/>
<path d="M0 0 C2.625 -0.1875 2.625 -0.1875 5 0 C6 3 6 3 5.171875 4.69140625 C-1.78038856 13.8401267 -10.9042366 23.18043036 -22 27 C-24.8203125 26.64453125 -24.8203125 26.64453125 -27 26 C-27 24.68 -27 23.36 -27 22 C-26.38253906 21.72027344 -25.76507813 21.44054687 -25.12890625 21.15234375 C-14.60346804 16.16998259 -6.47215717 9.70823576 0 0 Z " fill="#5A5758" transform="translate(434,544)"/>
<path d="M0 0 C0.598125 0.226875 1.19625 0.45375 1.8125 0.6875 C0.83349063 8.1359091 -4.41439498 13.38421856 -10.0234375 18.04296875 C-20.86345914 26.02041095 -20.86345914 26.02041095 -28.1875 25.6875 C-28.02734375 23.921875 -28.02734375 23.921875 -27.1875 21.6875 C-24.75390625 19.765625 -24.75390625 19.765625 -21.75 17.9375 C-20.26693359 17.01710938 -20.26693359 17.01710938 -18.75390625 16.078125 C-16.1875 14.6875 -16.1875 14.6875 -14.1875 14.6875 C-13.919375 14.089375 -13.65125 13.49125 -13.375 12.875 C-12.18832594 10.68902146 -11.09150887 9.27417406 -9.1875 7.6875 C-8.5275 7.6875 -7.8675 7.6875 -7.1875 7.6875 C-6.919375 6.924375 -6.65125 6.16125 -6.375 5.375 C-3.7625 -0.5375 -3.7625 -0.5375 0 0 Z " fill="#585455" transform="translate(430.1875,536.3125)"/>
<path d="M0 0 C2.75 1.375 2.75 1.375 4.75 3.375 C5.31213018 10.45784024 5.31213018 10.45784024 3.5625 13.3125 C1.11495238 14.74726929 -0.38206939 15.30830394 -3.25 15.375 C-6.5625 13.9375 -6.5625 13.9375 -9.25 11.375 C-10.13338458 8.51423803 -10.12608005 6.2368615 -9.25 3.375 C-6.01539672 0.14039672 -4.55536808 -0.87603232 0 0 Z " fill="#000000" transform="translate(704.25,448.625)"/>
<path d="M0 0 C3.73718517 0.27503094 5.59037966 0.64133721 8.44921875 3.14453125 C9.18785156 4.02496094 9.92648437 4.90539062 10.6875 5.8125 C11.43386719 6.68519531 12.18023437 7.55789063 12.94921875 8.45703125 C13.62597656 9.29621094 14.30273438 10.13539063 15 11 C15.59039062 11.72058594 16.18078125 12.44117188 16.7890625 13.18359375 C18 15 18 15 17.6875 17.25 C17.460625 17.8275 17.23375 18.405 17 19 C13.46966248 18.73226717 12.20472855 18.20887145 9.68359375 15.63671875 C8.94238281 14.66347656 8.20117188 13.69023437 7.4375 12.6875 C4.77900306 9.23652217 2.15365662 6.01063365 -1 3 C-0.67 2.01 -0.34 1.02 0 0 Z " fill="#535051" transform="translate(405,453)"/>
<path d="M0 0 C4.64824315 2.3576829 7.28292213 5.37971453 10.375 9.4375 C10.83777344 10.01048828 11.30054688 10.58347656 11.77734375 11.17382812 C15.05080104 15.41955109 15.05080104 15.41955109 14.7890625 18.41015625 C14.52867187 18.93480469 14.26828125 19.45945312 14 20 C12.68 20 11.36 20 10 20 C8 17.98828125 8 17.98828125 6 15.3125 C5.34 14.44238281 4.68 13.57226562 4 12.67578125 C3.01 11.35126953 3.01 11.35126953 2 10 C1.25363281 9.11183594 0.50726563 8.22367187 -0.26171875 7.30859375 C-2 5 -2 5 -1.8125 2.75 C-1 1 -1 1 0 0 Z " fill="#525051" transform="translate(417,449)"/>
<path d="M0 0 C6 3 12 6 18 9 C17.67 10.32 17.34 11.64 17 13 C18.65 13.66 20.3 14.32 22 15 C19.08630478 16.45684761 17.56523716 15.47961188 14.5 14.5 C8.18707324 12.33469662 3.21574671 9.10797749 -2 5 C-1.34 4.67 -0.68 4.34 0 4 C0.66 4.33 1.32 4.66 2 5 C1.34 3.35 0.68 1.7 0 0 Z " fill="#615E5F" transform="translate(337,541)"/>
<path d="M0 0 C0.72703125 0.09539062 1.4540625 0.19078125 2.203125 0.2890625 C1.74958732 5.15347646 -0.36601706 7.55428815 -3.609375 11.1015625 C-4.48207031 12.07738281 -5.35476563 13.05320312 -6.25390625 14.05859375 C-8.796875 16.2890625 -8.796875 16.2890625 -12.796875 16.2890625 C-12.34971368 11.20632888 -10.95695496 8.67418378 -7.546875 4.9140625 C-6.39445312 3.60308594 -6.39445312 3.60308594 -5.21875 2.265625 C-2.796875 0.2890625 -2.796875 0.2890625 0 0 Z " fill="#555354" transform="translate(313.796875,443.7109375)"/>
<path d="M0 0 C0.25390625 2.296875 0.25390625 2.296875 0 5 C-4.4374582 9.5481431 -9.74722249 11.73392436 -16 12 C-16.33 10.35 -16.66 8.7 -17 7 C-14.15722819 5.7939756 -11.43159329 4.85041929 -8.4375 4.0625 C-5.94051874 3.29070579 -2.30820723 0 0 0 Z " fill="#585455" transform="translate(424,559)"/>
<path d="M0 0 C2.64 0 5.28 0 8 0 C8 0.99 8 1.98 8 3 C8.66 3 9.32 3 10 3 C10 3.66 10 4.32 10 5 C7.36 5 4.72 5 2 5 C2 4.01 2 3.02 2 2 C1.34 2 0.68 2 0 2 C0 1.34 0 0.68 0 0 Z " fill="#555253" transform="translate(341,573)"/>
<path d="M0 0 C3.63 0 7.26 0 11 0 C11 0.99 11 1.98 11 3 C7.7 3.33 4.4 3.66 1 4 C0.67 2.68 0.34 1.36 0 0 Z " fill="#555354" transform="translate(360,579)"/>
<path d="M0 0 C2.4375 0.375 2.4375 0.375 5 1 C6.24546405 3.49092811 5.7767578 4.41080733 5 7 C1.31245243 6.50168276 -0.60490662 5.89932357 -3 3 C-1.68 3.33 -0.36 3.66 1 4 C0.67 2.68 0.34 1.36 0 0 Z " fill="#615F5F" transform="translate(341,560)"/>
<path d="M0 0 C0 3 0 3 -2.046875 5.296875 C-3.38492187 6.51117187 -3.38492187 6.51117187 -4.75 7.75 C-5.63171875 8.56984375 -6.5134375 9.3896875 -7.421875 10.234375 C-10 12 -10 12 -12.328125 11.765625 C-12.87984375 11.51296875 -13.4315625 11.2603125 -14 11 C-13.24074219 10.45730469 -12.48148437 9.91460938 -11.69921875 9.35546875 C-10.70535156 8.64003906 -9.71148437 7.92460938 -8.6875 7.1875 C-7.70136719 6.47980469 -6.71523438 5.77210938 -5.69921875 5.04296875 C-3.59942813 3.45369163 -1.77965031 1.92542371 0 0 Z " fill="#636061" transform="translate(428,552)"/>
<path d="M0 0 C6.0546875 -0.1953125 6.0546875 -0.1953125 8 0 C8.66 0.66 9.32 1.32 10 2 C5.87831311 3.62950412 3.29299643 4.26264601 -1 3 C-0.67 2.01 -0.34 1.02 0 0 Z " fill="#4A4B4A" transform="translate(364,444)"/>
<path d="M0 0 C2 3 2 3 2 5 C-1.14737182 4.30058404 -4.02588876 3.23921302 -7 2 C-7 1.67 -7 1.34 -7 1 C-3.535 0.505 -3.535 0.505 0 0 Z " fill="#565354" transform="translate(338,569)"/>
<path d="M0 0 C0.66 0.33 1.32 0.66 2 1 C-0.97 3.64 -3.94 6.28 -7 9 C-7.33 7.68 -7.66 6.36 -8 5 C-7.236875 4.731875 -6.47375 4.46375 -5.6875 4.1875 C-3.12619116 3.05575888 -1.80307062 2.08776599 0 0 Z " fill="#666464" transform="translate(432,554)"/>
<path d="M0 0 C0 0.66 0 1.32 0 2 C-0.66 2 -1.32 2 -2 2 C-2 2.66 -2 3.32 -2 4 C-1.34 4 -0.68 4 0 4 C0 4.66 0 5.32 0 6 C-1.65 5.67 -3.3 5.34 -5 5 C-4.625 3.0625 -4.625 3.0625 -4 1 C-2 0 -2 0 0 0 Z " fill="#5D5A5B" transform="translate(389,535)"/>
<path d="M0 0 C0.66 0 1.32 0 2 0 C2.33 1.65 2.66 3.3 3 5 C1.02 5.99 1.02 5.99 -1 7 C-1.66 6.34 -2.32 5.68 -3 5 C-1.625 2.5 -1.625 2.5 0 0 Z " fill="#4A4748" transform="translate(333,509)"/>
<path d="M0 0 C0.66 0.66 1.32 1.32 2 2 C3.64991582 2.70710678 5.31562256 3.37943989 7 4 C7 4.33 7 4.66 7 5 C1.46153846 5.36923077 1.46153846 5.36923077 -0.875 3.5 C-1.24625 3.005 -1.6175 2.51 -2 2 C-1.34 1.34 -0.68 0.68 0 0 Z " fill="#4E4D4D" transform="translate(355,550)"/>
<path d="M0 0 C0.99 0.99 1.98 1.98 3 3 C2.34 4.32 1.68 5.64 1 7 C0.67 6.34 0.34 5.68 0 5 C-0.66 5 -1.32 5 -2 5 C-2 4.34 -2 3.68 -2 3 C-1.34 3 -0.68 3 0 3 C0 2.01 0 1.02 0 0 Z " fill="#4D4A4B" transform="translate(389,534)"/>
</svg>
